<svg width="128" height="128" viewBox="0 0 128 128" fill="none" xmlns="http://www.w3.org/2000/svg">
<path d="M93.3514 0H34.6484C15.5429 0 0 15.5429 0 34.6484V93.3524C0 112.457 15.5429 128 34.6484 128H93.3524C112.457 128 128 112.457 128 93.3524V34.6484C128 15.5429 112.457 0 93.3514 0V0ZM120.496 93.3524C120.496 108.319 108.319 120.496 93.3514 120.496H34.6484C19.6806 120.496 7.50389 108.319 7.50389 93.3524V34.6484C7.50389 19.6806 19.6806 7.50389 34.6484 7.50389H93.3524C108.319 7.50389 120.496 19.6806 120.496 34.6484V93.3524Z" fill="white"/>
<path d="M63.9999 29.001C44.7011 29.001 29.001 44.7011 29.001 63.9999C29.001 83.2987 44.7011 98.9989 63.9999 98.9989C83.2987 98.9989 98.9989 83.2987 98.9989 63.9999C98.9989 44.7011 83.2987 29.001 63.9999 29.001V29.001ZM63.9999 91.495C48.8398 91.495 36.5049 79.161 36.5049 63.9999C36.5049 48.8398 48.8398 36.5049 63.9999 36.5049C79.161 36.5049 91.495 48.8398 91.495 63.9999C91.495 79.161 79.161 91.495 63.9999 91.495V91.495Z" fill="white"/>
<path d="M99.8359 16.5713C94.1328 16.5713 89.4941 21.2109 89.4941 26.9131C89.4941 32.6162 94.1328 37.2558 99.8359 37.2558C105.539 37.2558 110.179 32.6162 110.179 26.9131C110.179 21.21 105.539 16.5713 99.8359 16.5713ZM99.8359 29.751C98.2715 29.751 96.998 28.4775 96.998 26.9131C96.998 25.3476 98.2715 24.0752 99.8359 24.0752C101.401 24.0752 102.675 25.3476 102.675 26.9131C102.675 28.4775 101.401 29.751 99.8359 29.751Z" fill="white"/>
</svg>
