<svg width="98" height="129" viewBox="0 0 98 129" fill="none" xmlns="http://www.w3.org/2000/svg">
<path d="M15.7361 70.0981C15.8963 69.6955 17.4988 63.4892 17.6111 63.069C15.1092 59.2749 12.3299 46.8505 14.4617 36.7655C16.7615 21.9681 32.3211 14.694 47.0115 14.694V14.6664C65.4041 14.6782 79.1717 24.9916 79.1863 42.7533C79.198 56.656 70.8875 75.0328 56.6971 75.0328C56.6931 75.0328 56.6902 75.0328 56.6863 75.0328C51.6219 75.0328 45.2098 72.718 43.5281 70.4445C41.5877 67.8246 41.1111 64.5915 42.1365 61.137C44.6492 53.0538 47.8533 43.3714 48.2273 36.9151C48.574 30.8219 44.284 26.8576 38.7205 26.8576C34.534 26.8576 29.0965 29.3083 26.3865 36.1946C24.1482 41.9157 24.1961 47.9055 26.533 54.5045C27.4441 57.0841 22.4939 73.901 20.908 79.377C16.9676 92.9805 11.573 110.192 12.7264 119.777L13.8396 129L19.4314 121.615C27.1697 111.406 35.1707 84.9978 37.3025 78.572C43.6053 86.7979 56.7303 87.0341 58.2605 87.0341C77.0564 87.0341 98.3699 68.2242 97.7654 42.0447C97.2351 19.0864 80.5633 0 50.6072 0V0.0295259C22.1131 0.0295259 5.48221 15.3573 1.41092 34.7243C-2.31759 52.6818 5.9744 66.3493 15.7361 70.0981Z" fill="white"/>
</svg>
