<svg width="129" height="107" viewBox="0 0 129 107" fill="none" xmlns="http://www.w3.org/2000/svg">
<path d="M48.1258 106.421C42.5474 106.421 36.8057 105.969 31.0295 105.064C20.8559 103.467 10.5574 98.1458 7.6432 96.5523L0 92.3735L8.27505 89.6522C17.3207 86.6779 22.8233 84.8326 29.6349 81.943C22.8145 78.6401 17.5579 72.6985 15.0276 65.0179L13.1025 59.1737L14.6811 59.4148C13.1842 57.9061 12.0022 56.3747 11.0859 54.982C7.82725 50.0325 6.10197 43.9847 6.46907 38.8019L6.83125 33.7009L9.88518 34.8839C8.59688 32.4509 7.66584 29.8527 7.11863 27.1294C5.78506 20.4881 6.90113 13.4324 10.2621 7.26252L12.9224 2.37896L16.4802 6.65232C27.7325 20.1692 41.9845 28.1874 58.8997 30.5347C58.2088 25.7722 58.7265 21.176 60.44 17.0562C62.4349 12.2593 65.9839 8.1916 70.7001 5.29217C75.938 2.07288 82.2899 0.512931 88.5858 0.899719C95.2655 1.31013 101.33 3.81293 106.147 8.14239C108.499 7.5312 110.232 6.87868 112.574 5.99685C113.984 5.46637 115.582 4.86404 117.582 4.17511L124.952 1.63589L120.146 15.3614C120.463 15.3349 120.789 15.3122 121.131 15.2975L129 14.9412L124.349 21.2981C124.082 21.6622 124.015 21.7656 123.92 21.9083C123.545 22.4732 123.079 23.1759 116.694 31.701C115.096 33.8357 114.298 36.616 114.446 39.5312C115.012 50.6093 113.653 60.6323 110.404 69.3207C107.332 77.5407 102.57 84.5934 96.2536 90.283C88.4372 97.322 78.4703 102.142 66.6285 104.606C60.8199 105.815 54.5821 106.421 48.1258 106.421V106.421Z" fill="white"/>
</svg>
